:FULLY-SPECIFIED
:FORCE-ALL-JOINTS-BE-3DOF
:DEGREES
1
root 7.46593 15.9937 -36.7321 7.11356 1.31487 -3.66776
lfemur -40.6897 6.42258 -16.3516
ltibia 43.9106 0 0
lfoot -14.6186 8.34667 0
ltoes -11.8487 0 0
rfemur -9.89801 4.72659 30.1099
rtibia 24.1198 0 0
rfoot 0 0 0
rtoes 0 0 0
lowerback -4.29912 0.189404 0.939401
upperback -1.51886 0.185188 2.55702
thorax 0.845091 0.0960327 2.10705
lowerneck -18.6579 -5.17414 -13.3376
upperneck 13.6797 -6.63107 16.9236
head 8.38994 -2.28192 7.17028
lclavicle 6.33626e-15 1.59028e-14 0
lhumerus -35.9267 -2.97855 86.2544
lradius 27.4056 0 0
lwrist 7.30557 0 0
lhand -13.3003 -23.0211 0
lfingers 7.12502 0 0
lthumb 12.8038 6.56624 0
rclavicle 6.33626e-15 1.59028e-14 0
rhumerus -38.7688 17.4551 -84.1031
rradius 56.1989 0 0
rwrist -28.5696 0 0
rhand -33.2015 -25.7513 0
rfingers 7.12502 0 0
rthumb -6.4087 -55.6344 0
2
root 7.47265 15.9928 -36.6057 7.07272 1.06633 -3.65155
lfemur -40.7002 6.07789 -16.1378
ltibia 41.9494 0 0
lfoot -14.5342 8.30302 0
ltoes -11.9187 0 0
rfemur -9.05545 4.87426 30.0888
rtibia 23.5702 0 0
rfoot 0 0 0
rtoes 0 0 0
lowerback -4.38536 0.213977 0.895859
upperback -1.50857 0.217665 2.54057
thorax 0.902669 0.112088 2.11698
lowerneck -18.6072 -5.11189 -13.2583
upperneck 13.7535 -6.57076 16.8737
head 8.39011 -2.25484 7.14895
lclavicle 5.41067e-15 9.24352e-15 0
lhumerus -36.0955 -3.19056 86.4662
lradius 27.5001 0 0
lwrist 7.25572 0 0
lhand -13.0427 -23.0873 0
lfingers 7.12502 0 0
lthumb 13.0521 6.48352 0
rclavicle 5.41067e-15 9.24352e-15 0
rhumerus -38.8454 17.5939 -84.2926
rradius 56.7251 0 0
rwrist -29.5184 0 0
rhand -32.8692 -26.3566 0
rfingers 7.12502 0 0
rthumb -6.0879 -56.248 0
3
root 7.47937 15.992 -36.4792 7.03189 0.817787 -3.63535
lfemur -40.7106 5.73321 -15.9241
ltibia 39.9882 0 0
lfoot -14.4498 8.25938 0
ltoes -11.9887 0 0
rfemur -8.21288 5.02193 30.0676
rtibia 23.0206 0 0
rfoot 0 0 0
rtoes 0 0 0
lowerback -4.47159 0.23855 0.852316
upperback -1.49828 0.250142 2.52412
thorax 0.960247 0.128142 2.12691
lowerneck -18.5565 -5.04964 -13.179
upperneck 13.8272 -6.51045 16.8238
head 8.39028 -2.22777 7.12761
lclavicle 4.48508e-15 2.58423e-15 0
lhumerus -36.2642 -3.40257 86.6779
lradius 27.5946 0 0
lwrist 7.20587 0 0
lhand -12.785 -23.1534 0
lfingers 7.12502 0 0
lthumb 13.3004 6.40079 0
rclavicle 4.48508e-15 2.58423e-15 0
rhumerus -38.922 17.7327 -84.4821
rradius 57.2514 0 0
rwrist -30.4673 0 0
rhand -32.537 -26.9619 0
rfingers 7.12502 0 0
rthumb -5.76711 -56.8615 0
4
root 7.48609 15.9911 -36.3528 6.99105 0.569245 -3.61914
lfemur -40.7211 5.38852 -15.7103
ltibia 38.0269 0 0
lfoot -14.3653 8.21573 0
ltoes -12.0587 0 0
rfemur -7.37031 5.1696 30.0465
rtibia 22.471 0 0
rfoot 0 0 0
rtoes 0 0 0
lowerback -4.55783 0.263122 0.808774
upperback -1.48799 0.282619 2.50767
thorax 1.01783 0.144197 2.13685
lowerneck -18.5057 -4.9874 -13.0998
upperneck 13.901 -6.45014 16.7738
head 8.39044 -2.2007 7.10628
lclavicle 3.55949e-15 -4.07505e-15 0
lhumerus -36.433 -3.61458 86.8897
lradius 27.6891 0 0
lwrist 7.15602 0 0
lhand -12.5274 -23.2196 0
lfingers 7.12502 0 0
lthumb 13.5488 6.31807 0
rclavicle 3.55949e-15 -4.07505e-15 0
rhumerus -38.9986 17.8715 -84.6716
rradius 57.7776 0 0
rwrist -31.4161 0 0
rhand -32.2047 -27.5673 0
rfingers 7.12502 0 0
rthumb -5.44631 -57.4751 0
5
root 7.4928 15.9902 -36.2264 6.95021 0.320703 -3.60293
lfemur -40.7315 5.04384 -15.4965
ltibia 36.0657 0 0
lfoot -14.2809 8.17208 0
ltoes -12.1287 0 0
rfemur -6.52775 5.31728 30.0254
rtibia 21.9213 0 0
rfoot 0 0 0
rtoes 0 0 0
lowerback -4.64406 0.287695 0.765231
upperback -1.47769 0.315096 2.49121
thorax 1.0754 0.160252 2.14678
lowerneck -18.455 -4.92515 -13.0205
upperneck 13.9748 -6.38983 16.7239
head 8.39061 -2.17362 7.08494
lclavicle 2.6339e-15 -1.07343e-14 0
lhumerus -36.6018 -3.8266 87.1014
lradius 27.7835 0 0
lwrist 7.10618 0 0
lhand -12.2697 -23.2858 0
lfingers 7.12502 0 0
lthumb 13.7971 6.23535 0
rclavicle 2.6339e-15 -1.07343e-14 0
rhumerus -39.0753 18.0104 -84.8612
rradius 58.3038 0 0
rwrist -32.3649 0 0
rhand -31.8724 -28.1726 0
rfingers 7.12502 0 0
rthumb -5.12551 -58.0887 0
6
root 7.49952 15.9894 -36.0999 6.90938 0.0721617 -3.58673
lfemur -40.742 4.69916 -15.2828
ltibia 34.1045 0 0
lfoot -14.1965 8.12844 0
ltoes -12.1987 0 0
rfemur -5.68518 5.46495 30.0042
rtibia 21.3717 0 0
rfoot 0 0 0
rtoes 0 0 0
lowerback -4.7303 0.312268 0.721689
upperback -1.4674 0.347573 2.47476
thorax 1.13298 0.176307 2.15671
lowerneck -18.4043 -4.8629 -12.9412
upperneck 14.0485 -6.32952 16.674
head 8.39078 -2.14655 7.0636
lclavicle 1.70831e-15 -1.73936e-14 0
lhumerus -36.7705 -4.03861 87.3132
lradius 27.878 0 0
lwrist 7.05633 0 0
lhand -12.0121 -23.3519 0
lfingers 7.12502 0 0
lthumb 14.0454 6.15262 0
rclavicle 1.70831e-15 -1.73936e-14 0
rhumerus -39.1519 18.1492 -85.0507
rradius 58.8301 0 0
rwrist -33.3138 0 0
rhand -31.5402 -28.7779 0
rfingers 7.12502 0 0
rthumb -4.80472 -58.7022 0
7
root 7.50624 15.9885 -35.9735 6.86854 -0.17638 -3.57052
lfemur -40.7524 4.35447 -15.069
ltibia 32.1433 0 0
lfoot -14.1121 8.08479 0
ltoes -12.2687 0 0
rfemur -4.84262 5.61262 29.9831
rtibia 20.8221 0 0
rfoot 0 0 0
rtoes 0 0 0
lowerback -4.81653 0.336841 0.678146
upperback -1.45711 0.38005 2.45831
thorax 1.19056 0.192362 2.16664
lowerneck -18.3536 -4.80065 -12.8619
upperneck 14.1223 -6.26921 16.6241
head 8.39095 -2.11947 7.04227
lclavicle 7.82715e-16 -2.40529e-14 0
lhumerus -36.9393 -4.25062 87.5249
lradius 27.9725 0 0
lwrist 7.00648 0 0
lhand -11.7544 -23.4181 0
lfingers 7.12502 0 0
lthumb 14.2937 6.0699 0
rclavicle 7.82715e-16 -2.40529e-14 0
rhumerus -39.2285 18.288 -85.2402
rradius 59.3563 0 0
rwrist -34.2626 0 0
rhand -31.2079 -29.3832 0
rfingers 7.12502 0 0
rthumb -4.48392 -59.3158 0
8
root 7.51573 15.9834 -35.84 6.86521 -0.546345 -3.69182
lfemur -40.7069 3.90918 -14.4619
ltibia 30.661 0 0
lfoot -14.1265 8.61489 0
ltoes -12.6549 0 0
rfemur -3.82349 5.69229 30.0654
rtibia 19.867 0 0
rfoot -3.43245 -0.3393 0
rtoes -1.18253 0 0
lowerback -4.97127 0.404721 0.749935
upperback -1.40574 0.460546 2.49175
thorax 1.32766 0.232261 2.16856
lowerneck -18.5904 -4.82851 -12.6531
upperneck 14.3711 -6.3261 16.3972
head 8.50911 -2.14235 6.92309
lclavicle 2.72294e-16 -2.13362e-14 0
lhumerus -37.2598 -4.68265 87.7846
lradius 28.2751 0 0
lwrist 7.01526 0 0
lhand -11.143 -23.2351 0
lfingers 7.12502 0 0
lthumb 14.8824 6.20541 0
rclavicle 2.72294e-16 -2.13362e-14 0
rhumerus -39.3461 18.3771 -85.5045
rradius 59.7178 0 0
rwrist -34.3801 0 0
rhand -31.2073 -29.4365 0
rfingers 7.12502 0 0
rthumb -4.48335 -59.3691 0
9
root 7.52521 15.9783 -35.7064 6.86189 -0.91631 -3.81311
lfemur -40.6614 3.4639 -13.8547
ltibia 29.1787 0 0
lfoot -14.1409 9.14499 0
ltoes -13.0412 0 0
rfemur -2.80435 5.77196 30.1477
rtibia 18.9119 0 0
rfoot -6.8649 -0.6786 0
rtoes -2.36506 0 0
lowerback -5.12601 0.4726 0.821724
upperback -1.35437 0.541041 2.52519
thorax 1.46476 0.27216 2.17047
lowerneck -18.8272 -4.85637 -12.4442
upperneck 14.6198 -6.38299 16.1703
head 8.62727 -2.16522 6.80392
lclavicle -2.38127e-16 -1.86195e-14 0
lhumerus -37.5802 -5.11468 88.0442
lradius 28.5777 0 0
lwrist 7.02404 0 0
lhand -10.5317 -23.0521 0
lfingers 7.12502 0 0
lthumb 15.4711 6.34092 0
rclavicle -2.38127e-16 -1.86195e-14 0
rhumerus -39.4637 18.4663 -85.7687
rradius 60.0792 0 0
rwrist -34.4975 0 0
rhand -31.2067 -29.4897 0
rfingers 7.12502 0 0
rthumb -4.48277 -59.4223 0
10
root 7.5347 15.9732 -35.5729 6.85856 -1.28628 -3.93441
lfemur -40.6159 3.01861 -13.2476
ltibia 27.6964 0 0
lfoot -14.1552 9.67509 0
ltoes -13.4274 0 0
rfemur -1.78522 5.85163 30.23
rtibia 17.9567 0 0
rfoot -10.2973 -1.0179 0
rtoes -3.54759 0 0
lowerback -5.28076 0.54048 0.893513
upperback -1.303 0.621536 2.55863
thorax 1.60186 0.312059 2.17239
lowerneck -19.064 -4.88423 -12.2354
upperneck 14.8686 -6.43989 15.9433
head 8.74544 -2.1881 6.68474
lclavicle -7.48547e-16 -1.59028e-14 0
lhumerus -37.9007 -5.54671 88.3039
lradius 28.8803 0 0
lwrist 7.03282 0 0
lhand -9.92028 -22.8691 0
lfingers 7.12502 0 0
lthumb 16.0598 6.47644 0
rclavicle -7.48547e-16 -1.59028e-14 0
rhumerus -39.5813 18.5554 -86.0329
rradius 60.4407 0 0
rwrist -34.615 0 0
rhand -31.2062 -29.5429 0
rfingers 7.12502 0 0
rthumb -4.4822 -59.4755 0
11
root 7.54418 15.9681 -35.4394 6.85523 -1.65624 -4.05571
lfemur -40.5705 2.57332 -12.6405
ltibia 26.2141 0 0
lfoot -14.1696 10.2052 0
ltoes -13.8136 0 0
rfemur -0.766087 5.93129 30.3123
rtibia 17.0016 0 0
rfoot -13.7298 -1.3572 0
rtoes -4.73011 0 0
lowerback -5.4355 0.60836 0.965302
upperback -1.25163 0.702032 2.59208
thorax 1.73896 0.351957 2.1743
lowerneck -19.3008 -4.91209 -12.0265
upperneck 15.1174 -6.49678 15.7164
head 8.8636 -2.21098 6.56556
lclavicle -1.25897e-15 -1.3186e-14 0
lhumerus -38.2212 -5.97875 88.5635
lradius 29.1828 0 0
lwrist 7.0416 0 0
lhand -9.3089 -22.686 0
lfingers 7.12502 0 0
lthumb 16.6485 6.61195 0
rclavicle -1.25897e-15 -1.3186e-14 0
rhumerus -39.6989 18.6445 -86.2972
rradius 60.8022 0 0
rwrist -34.7325 0 0
rhand -31.2056 -29.5962 0
rfingers 7.12502 0 0
rthumb -4.48163 -59.5288 0
12
root 7.55367 15.963 -35.3058 6.85191 -2.02621 -4.177
lfemur -40.525 2.12804 -12.0333
ltibia 24.7318 0 0
lfoot -14.184 10.7353 0
ltoes -14.1999 0 0
rfemur 0.253047 6.01096 30.3946
rtibia 16.0465 0 0
rfoot -17.1623 -1.6965 0
rtoes -5.91264 0 0
lowerback -5.59024 0.676239 1.03709
upperback -1.20026 0.782527 2.62552
thorax 1.87606 0.391856 2.17622
lowerneck -19.5376 -4.93995 -11.8177
upperneck 15.3661 -6.55367 15.4895
head 8.98176 -2.23385 6.44639
lclavicle -1.76939e-15 -1.04693e-14 0
lhumerus -38.5416 -6.41078 88.8231
lradius 29.4854 0 0
lwrist 7.05038 0 0
lhand -8.69753 -22.503 0
lfingers 7.12502 0 0
lthumb 17.2372 6.74746 0
rclavicle -1.76939e-15 -1.04693e-14 0
rhumerus -39.8165 18.7337 -86.5614
rradius 61.1636 0 0
rwrist -34.8499 0 0
rhand -31.205 -29.6494 0
rfingers 7.12502 0 0
rthumb -4.48105 -59.582 0
13
root 7.56315 15.9579 -35.1723 6.84858 -2.39617 -4.2983
lfemur -40.4795 1.68275 -11.4262
ltibia 23.2495 0 0
lfoot -14.1984 11.2654 0
ltoes -14.5861 0 0
rfemur 1.27218 6.09063 30.4769
rtibia 15.0914 0 0
rfoot -20.5947 -2.0358 0
rtoes -7.09517 0 0
lowerback -5.74498 0.744119 1.10888
upperback -1.14889 0.863023 2.65896
thorax 2.01316 0.431755 2.17813
lowerneck -19.7744 -4.96781 -11.6088
upperneck 15.6149 -6.61056 15.2626
head 9.09992 -2.25673 6.32721
lclavicle -2.27981e-15 -7.7526e-15 0
lhumerus -38.8621 -6.84281 89.0828
lradius 29.788 0 0
lwrist 7.05916 0 0
lhand -8.08615 -22.32 0
lfingers 7.12502 0 0
lthumb 17.8259 6.88297 0
rclavicle -2.27981e-15 -7.7526e-15 0
rhumerus -39.9341 18.8228 -86.8257
rradius 61.5251 0 0
rwrist -34.9674 0 0
rhand -31.2044 -29.7027 0
rfingers 7.12502 0 0
rthumb -4.48048 -59.6353 0
14
root 7.57544 15.9473 -35.0318 6.89414 -2.83879 -4.59742
lfemur -40.4436 1.12757 -10.4685
ltibia 22.4896 0 0
lfoot -14.5037 12.2604 0
ltoes -13.9156 0 0
rfemur 2.27157 6.19496 30.6862
rtibia 14.1592 0 0
rfoot -20.2631 -1.85737 0
rtoes -7.05179 0 0
lowerback -5.85032 0.855809 1.37711
upperback -1.16199 0.988971 2.72835
thorax 2.06011 0.495944 2.1115
lowerneck -19.8089 -4.95471 -11.6394
upperneck 15.6734 -6.57364 15.204
head 9.11867 -2.24532 6.31851
lclavicle -1.00324e-15 -7.62008e-15 0
lhumerus -39.0866 -7.15051 89.2595
lradius 29.6314 0 0
lwrist 7.05287 0 0
lhand -8.00858 -22.4827 0
lfingers 7.12502 0 0
lthumb 17.9006 6.71338 0
rclavicle -1.00324e-15 -7.62008e-15 0
rhumerus -40.2065 18.9184 -87.1969
rradius 61.7272 0 0
rwrist -34.9578 0 0
rhand -31.241 -29.6269 0
rfingers 7.12502 0 0
rthumb -4.51586 -59.5588 0
